# xmcd
#
# Track frame offsets:
#	182
#	17340
#	40740
#	61032
#	85902
#	104930
#	105582
#	114307
#
# Disc length: 1885 seconds
#
# Revision: 0
# Processed by: cddbd v1.5.2PL0 Copyright (c) Steve Scherf et al.
# Submitted via: dBpowerAMP V4.0
#
DISCID=59075b08
DTITLE=Malicious Onslaught - Brutal Gore
DYEAR=1994
DGENRE=Death Metal
TTITLE0=The Morgue
TTITLE1=Corpseifier
TTITLE2=Blademare
TTITLE3=Submerged In Silence
TTITLE4=Carcassed
TTITLE5=Brutal Gore
TTITLE6=Internal Decay
TTITLE7=Productive Destruction
EXTD=
EXTT0=
EXTT1=
EXTT2=
EXTT3=
EXTT4=
EXTT5=
EXTT6=
EXTT7=
PLAYORDER=
